  <svg
        preserveAspectRatio="xMidYMid meet"
        data-bbox="27.93 31.35 455.79 166.05"
        viewBox="27.93 31.35 455.79 166.05"
        xmlns="http://www.w3.org/2000/svg"
        data-type="color"
        role="presentation"
        aria-hidden="true"
        aria-label=""
      >
        <g>
          <path
            d="M356.8 166.91c0-18.42-9.44-28.36-30.47-28.36-20.01 0-32.11 8.88-32.11 29.82 0 20.94 12.21 29.03 29.72 29.03h28.45v-14.58h-24.31c-6.29 0-9.81-1.72-10.82-9.41h39.53v-6.5zm-39.78-3.84c.87-9.15 4.15-11.4 9.82-11.4 6.17 0 8.81 2.79 9.31 11.4h-19.13z"
            fill="#283479"
            data-color="1"
          ></path>
          <path
            fill="#283479"
            d="M483.72 113.49v83.9h-22.54v-83.9h22.54z"
            data-color="1"
          ></path>
          <path
            fill="#283479"
            d="M453.13 113.49v17.77h-23.42v-17.77h23.42z"
            data-color="1"
          ></path>
          <path
            fill="#283479"
            d="M452.75 139.87v57.52h-22.54v-57.52h22.54z"
            data-color="1"
          ></path>
          <path
            d="M396.84 163.86c-1.77 5.31-3.28 11.67-3.28 11.67s-1.51-6.36-3.28-11.67l-8.68-23.99h-24.05l23.54 57.52h22.93l23.42-57.52h-21.91l-8.69 23.99z"
            fill="#283479"
            data-color="1"
          ></path>
          <path
            d="M75.87 145.84v51.56h28.44l-22.73-40.16c-3.25-5.57-5.71-11.4-5.71-11.4zm175.17-29.95h-35.29V31.35H27.93v32.17c33.22 4.02 84.33 3.5 141.23-21.12 0 0-56.24 31.37-129.17 36.03 31.51.76 72.12-3.84 116.2-22.92 0 0-55.79 36.01-128.26 41.32V197.4h26.76v-81.51h25.72l22.73 40.03c2.99 5.17 5.32 11 5.32 11v-51.03h21.17v81.51h13.12v-17.76h36.11c4.8 0 8.44-2.12 8.44-7.55 0-5.7-3.12-7.95-8.05-7.95h-14.29c-16.62 0-24.55-9.55-24.55-23.86 0-14.71 8.44-24.39 25.46-24.39h40.78v17.76h-34.29c-5.19 0-8.44 1.86-8.44 7.56 0 5.3 2.85 7.55 8.05 7.55h14.81c16.37 0 24.29 9.01 24.29 24.25s-8.44 24.39-24.93 24.39h64.77c25.56 0 39.91-13.52 39.91-40.96.01-28.23-14.47-40.55-39.78-40.55zm-2.39 64.01h-10.58v-46.52h10.58c13.6 0 17.75 5.56 17.75 23.99 0 18.42-4.66 22.53-17.75 22.53z"
            fill="#283479"
            data-color="1"
          ></path>
          <path
            d="M238.25 69.76v-18.1h6.67c2.47 0 4.45.87 5.94 2.62 1.5 1.74 2.24 3.9 2.24 6.46 0 2.57-.77 4.71-2.31 6.43-1.54 1.73-3.75 2.59-6.61 2.59h-5.93zm3.35-2.66h2.72c1.46 0 2.69-.55 3.71-1.64 1.02-1.1 1.52-2.73 1.52-4.9 0-1.77-.44-3.26-1.33-4.5-.89-1.22-2.07-1.84-3.53-1.84h-3.1V67.1z"
            fill="#6b6b6b"
            data-color="2"
          ></path>
          <path
            d="M270.07 69.76H258.3v-18.1h11.64v2.69h-8.38v4.91h6.74v2.62h-6.74v5.07h8.51v2.81z"
            fill="#6b6b6b"
            data-color="2"
          ></path>
          <path
            d="M282.02 69.76h-3.33l-5.58-18.1h3.45l4.15 13.87 4.25-13.87h2.71l-5.65 18.1z"
            fill="#6b6b6b"
            data-color="2"
          ></path>
          <path
            d="M303.67 69.76h-11.76v-18.1h11.64v2.69h-8.38v4.91h6.74v2.62h-6.74v5.07h8.5v2.81z"
            fill="#6b6b6b"
            data-color="2"
          ></path>
          <path
            d="M319.8 69.76h-11.13v-18.1h3.43v15.15h7.7v2.95z"
            fill="#6b6b6b"
            data-color="2"
          ></path>
          <path
            d="M330.56 70.06c-2.4 0-4.28-.9-5.62-2.7-1.34-1.81-2-4.02-2-6.68 0-2.63.7-4.84 2.13-6.61 1.42-1.77 3.3-2.66 5.64-2.66s4.21.88 5.57 2.66c1.36 1.77 2.05 3.99 2.05 6.66 0 2.79-.71 5.04-2.13 6.76-1.42 1.72-3.3 2.57-5.64 2.57zm.02-2.62c1.17 0 2.17-.49 2.98-1.46.82-.98 1.22-2.73 1.22-5.29 0-2.09-.34-3.71-1.01-4.89-.67-1.18-1.71-1.77-3.13-1.77-2.79 0-4.18 2.25-4.18 6.75 0 2.19.35 3.84 1.07 4.96.7 1.14 1.72 1.7 3.05 1.7z"
            fill="#6b6b6b"
            data-color="2"
          ></path>
          <path
            d="M346.8 69.76h-3.26v-18.1h7.42c2.11 0 3.68.53 4.7 1.6 1.02 1.06 1.53 2.32 1.53 3.77 0 1.64-.55 2.99-1.66 4.01-1.11 1.03-2.5 1.54-4.2 1.54h-4.53v7.18zm0-9.97h3.86c1.01 0 1.78-.24 2.3-.75.54-.49.8-1.15.8-1.97 0-.74-.25-1.38-.74-1.9-.49-.54-1.38-.8-2.66-.8h-3.57v5.42z"
            fill="#6b6b6b"
            data-color="2"
          ></path>
          <path
            d="M373.75 69.76h-11.76v-18.1h11.64v2.69h-8.38v4.91H372v2.62h-6.75v5.07h8.51v2.81z"
            fill="#6b6b6b"
            data-color="2"
          ></path>
          <path
            d="M392.85 69.76h-3.45l-2.81-7.45H382v7.45h-3.27v-18.1h7.86c2.18 0 3.79.49 4.81 1.48 1.03.98 1.54 2.26 1.54 3.82 0 2.33-1.09 3.93-3.26 4.8l3.17 8zM382 59.71h4.05c1.18 0 2.05-.24 2.63-.74.57-.5.86-1.18.86-2.04 0-.8-.28-1.44-.85-1.93s-1.36-.73-2.37-.73H382v5.44z"
            fill="#6b6b6b"
            data-color="2"
          ></path>
          <path
            d="M401.15 51.66v2.98l-2.03 3.55h-.98l1.46-3.55h-1.46v-2.98h3.01z"
            fill="#6b6b6b"
            data-color="2"
          ></path>
          <path
            d="M405.17 65.43l3.18-.68c.37 1.79 1.84 2.69 4.37 2.69 1.16 0 2.05-.23 2.68-.69.62-.46.93-1.03.93-1.71 0-.5-.14-.96-.42-1.38-.29-.42-.89-.75-1.82-.98l-3.46-.9c-1.18-.31-2.06-.66-2.62-1.06-.57-.39-1.02-.95-1.36-1.67-.34-.71-.51-1.48-.51-2.29 0-1.62.6-2.92 1.81-3.89 1.2-.98 2.74-1.47 4.62-1.47 1.55 0 2.94.34 4.17 1.02 1.23.68 2.01 1.64 2.34 2.89l-3.1.77c-.47-1.37-1.59-2.06-3.34-2.06-1.02 0-1.79.21-2.33.64-.54.42-.8.96-.8 1.62 0 1.03.83 1.76 2.52 2.17l3.08.77c1.87.47 3.11 1.16 3.75 2.08.64.91.95 1.92.95 3.03 0 1.78-.67 3.18-2.01 4.2-1.34 1.03-3.08 1.53-5.21 1.53-1.79 0-3.37-.37-4.71-1.12-1.37-.75-2.26-1.92-2.71-3.51z"
            fill="#6b6b6b"
            data-color="2"
          ></path>
          <path
            d="M245.31 98.63h-3.32l-5.58-18.11h3.45L244 94.4l4.25-13.88h2.72l-5.66 18.11z"
            fill="#6b6b6b"
            data-color="2"
          ></path>
          <path
            d="M258.46 98.63h-3.26V80.52h3.26v18.11z"
            fill="#6b6b6b"
            data-color="2"
          ></path>
          <path
            d="M275.76 98.63h-11.14V80.52h3.43v15.15h7.71v2.96z"
            fill="#6b6b6b"
            data-color="2"
          ></path>
          <path
            d="M291.47 98.63h-11.14V80.52h3.44v15.15h7.7v2.96z"
            fill="#6b6b6b"
            data-color="2"
          ></path>
          <path
            d="M310.26 98.63h-3.49l-1.45-4.32h-6.96l-1.42 4.32h-2.78l6-18.11h4.02l6.08 18.11zm-5.82-6.93l-2.64-8.08-2.64 8.08h5.28z"
            fill="#6b6b6b"
            data-color="2"
          ></path>
          <path
            d="M327.72 89.39v9.25h-1.44l-1-2.44c-1.05 1.82-2.68 2.72-4.89 2.72-2.47 0-4.31-.93-5.52-2.81s-1.83-4.05-1.83-6.51c0-2.6.69-4.82 2.04-6.63 1.36-1.81 3.26-2.71 5.7-2.71 1.82 0 3.32.53 4.5 1.59 1.17 1.05 1.92 2.37 2.23 3.94l-2.84.5c-.53-2.21-1.81-3.31-3.81-3.31-1.29 0-2.33.52-3.14 1.56-.8 1.05-1.21 2.65-1.21 4.82 0 4.57 1.43 6.86 4.3 6.86 1.12 0 2.04-.39 2.76-1.15.74-.77 1.1-1.79 1.1-3.05h-3.74v-2.63h6.79z"
            fill="#6b6b6b"
            data-color="2"
          ></path>
          <path
            d="M345.35 98.63h-11.76V80.52h11.64v2.69h-8.38v4.91h6.74v2.62h-6.74v5.07h8.5v2.82z"
            fill="#6b6b6b"
            data-color="2"
          ></path>
        </g>
      </svg>
      